<svg width="701" height="706" viewBox="0 0 701 706" fill="none" xmlns="http://www.w3.org/2000/svg">
<path d="M409.062 68.016C346.953 67.3383 284.802 84.0846 229.353 112.296C173.904 140.508 125.549 184.972 98.7569 241.452C71.9647 297.932 68.5438 366.598 95.7285 422.852C105.921 443.933 121.315 463.941 143.074 472.272C170.904 482.918 201.748 472.385 231.484 471.269C271.792 469.772 310.655 485.855 346.448 504.635C382.241 523.414 416.787 545.385 455.356 557.26C493.925 569.135 538.41 569.587 571.932 547.009C603.575 525.702 620.357 487.112 624.367 448.988C628.376 410.864 621.282 372.556 614.23 334.884C606.828 295.532 571.077 69.7669 409.062 68.016Z" fill="#41B3A2"/>
<g opacity="0.7">
<path d="M409.062 68.016C346.953 67.3383 284.802 84.0846 229.353 112.296C173.904 140.508 125.549 184.972 98.7569 241.452C71.9647 297.932 68.5438 366.598 95.7285 422.852C105.921 443.933 121.315 463.941 143.074 472.272C170.904 482.918 201.748 472.385 231.484 471.269C271.792 469.772 310.655 485.855 346.448 504.635C382.241 523.414 416.787 545.385 455.356 557.26C493.925 569.135 538.41 569.587 571.932 547.009C603.575 525.702 620.357 487.112 624.367 448.988C628.376 410.864 621.282 372.556 614.23 334.884C606.828 295.532 571.077 69.7669 409.062 68.016Z" fill="white"/>
</g>
<path d="M353.024 636.191C464.523 636.191 554.912 627.479 554.912 616.733C554.912 605.987 464.523 597.276 353.024 597.276C241.524 597.276 151.136 605.987 151.136 616.733C151.136 627.479 241.524 636.191 353.024 636.191Z" fill="#41B3A2"/>
<path opacity="0.5" d="M353.024 636.191C464.523 636.191 554.912 627.479 554.912 616.733C554.912 605.987 464.523 597.276 353.024 597.276C241.524 597.276 151.136 605.987 151.136 616.733C151.136 627.479 241.524 636.191 353.024 636.191Z" fill="white"/>
<path d="M506.697 239.39C507.384 245.123 504.636 253.51 498.748 252.875C497.785 252.753 496.843 252.507 495.944 252.141C496.518 247.905 493.981 243.118 496.084 239.433C497.219 237.371 500.107 233.545 502.351 233.206C505.407 232.712 506.304 236.242 506.697 239.39Z" fill="#41B3A2"/>
<path d="M500.206 257.549C498.243 261.785 495.551 265.244 489.228 265.075C487.812 265.016 486.437 264.577 485.246 263.804C484.655 263.444 484.147 262.96 483.758 262.385C483.369 261.81 483.106 261.158 482.989 260.472C482.928 259.571 483.133 258.673 483.58 257.891C484.027 257.109 484.695 256.479 485.499 256.08C487.121 255.279 488.894 254.836 490.7 254.781C492.626 254.659 494.559 254.859 496.42 255.374C497.798 255.873 499.079 256.608 500.206 257.549Z" fill="#41B3A2"/>
<path d="M486.228 242.172C492.859 249.811 500.164 256.617 506.767 263.973" stroke="#41B3A2" stroke-miterlimit="10"/>
<path d="M527.839 262.801C528.043 266.05 527.202 269.278 525.442 272.008C523.745 274.549 521.236 276.06 518.432 275.368C517.518 275.098 516.635 274.733 515.796 274.281C516.206 272.092 516.258 269.85 515.95 267.645C515.578 265.51 515.866 263.311 516.777 261.347C517.955 259.3 520.759 255.346 523.198 255.29C526.451 255.219 527.657 259.37 527.839 262.801Z" fill="#41B3A2"/>
<path d="M519.147 280.183C517.96 282.098 516.341 283.704 514.422 284.871C512.185 286.027 509.632 286.405 507.16 285.944C505.875 285.776 504.662 285.253 503.655 284.433C503.164 284.084 502.767 283.617 502.5 283.075C502.233 282.533 502.105 281.932 502.126 281.327C502.238 280.45 502.575 279.618 503.103 278.912C503.632 278.206 504.334 277.652 505.141 277.303C506.757 276.597 508.512 276.273 510.272 276.357C512.161 276.364 514.03 276.753 515.768 277.5C517.041 278.189 518.185 279.097 519.147 280.183Z" fill="#41B3A2"/>
<path d="M506.767 264.044C510.118 267.673 513.188 271.528 516.188 275.425C519.189 279.322 521.881 283.473 524.39 287.723" stroke="#41B3A2" stroke-miterlimit="10"/>
<path d="M545.294 290.491C544.439 296.675 539.125 303.481 533.713 301.067C532.849 300.658 532.043 300.136 531.316 299.513C531.783 298.514 532.108 297.455 532.283 296.365C532.466 295.277 532.564 294.148 532.69 293.032C532.746 290.861 533.465 288.761 534.751 287.017C536.307 285.238 539.77 281.92 542.224 282.315C545.378 282.88 545.743 287.158 545.294 290.491Z" fill="#41B3A2"/>
<path d="M533.587 305.938C530.292 309.369 526.647 311.586 520.787 309.482C518.277 308.649 516.02 306.348 516.581 303.834C516.836 302.99 517.311 302.23 517.957 301.634C518.603 301.038 519.397 300.627 520.254 300.445C521.993 300.044 523.8 300.044 525.54 300.445C527.385 300.851 529.139 301.598 530.713 302.648C531.872 303.548 532.848 304.665 533.587 305.938Z" fill="#41B3A2"/>
<path d="M524.348 287.653C529.402 296.159 533.821 305.032 537.569 314.198" stroke="#41B3A2" stroke-miterlimit="10"/>
<path d="M557.996 320.651C557.086 323.851 555.104 326.634 552.388 328.53C549.864 330.239 546.99 330.648 544.635 328.911C543.879 328.329 543.192 327.661 542.588 326.92C543.804 325.043 544.638 322.94 545.042 320.736C545.363 318.603 546.344 316.626 547.846 315.088C549.612 313.563 553.566 310.852 555.893 311.501C556.597 311.734 557.213 312.178 557.659 312.774C558.105 313.369 558.36 314.088 558.389 314.834C558.683 316.778 558.549 318.764 557.996 320.651Z" fill="#41B3A2"/>
<path d="M543.485 333.627C539.504 336.197 535.41 337.284 530.236 334.277C528.049 333.02 526.325 330.69 527.432 328.629C527.907 327.923 528.529 327.331 529.256 326.894C529.983 326.457 530.796 326.187 531.638 326.101C533.368 325.911 535.117 326.159 536.728 326.822C538.47 327.486 540.051 328.516 541.368 329.843C542.31 330.955 543.029 332.24 543.485 333.627Z" fill="#41B3A2"/>
<path d="M537.611 314.198L540.415 321.103C541.279 323.379 542.014 325.704 542.616 328.064C543.861 332.82 544.784 337.655 545.378 342.537" stroke="#41B3A2" stroke-miterlimit="10"/>
<path d="M562.987 354.412C561.2 357.187 558.553 359.292 555.458 360.399C552.542 361.345 549.71 360.921 547.888 358.606C547.327 357.834 546.857 357 546.486 356.121C549.963 353.551 551.112 348.114 554.982 346.237C557.127 345.276 561.697 343.695 563.716 345.149C566.408 347.225 564.88 351.588 562.987 354.412Z" fill="#41B3A2"/>
<path d="M545.378 362.884C543.25 363.587 540.988 363.776 538.775 363.435C536.361 362.917 534.164 361.665 532.48 359.848C530.713 358.069 529.676 355.372 531.316 353.508C531.947 352.906 532.717 352.471 533.556 352.242C534.395 352.012 535.278 351.996 536.125 352.195C537.841 352.59 539.443 353.377 540.807 354.497C542.284 355.649 543.515 357.09 544.425 358.733C545.013 360.039 545.337 361.45 545.378 362.884Z" fill="#41B3A2"/>
<path d="M545.378 342.537C546.664 352.276 546.422 362.158 544.663 371.822" stroke="#41B3A2" stroke-miterlimit="10"/>
<path d="M556.874 389.712C555.479 390.749 553.919 391.541 552.262 392.056C550.687 392.537 549.036 392.71 547.397 392.564C545.995 392.526 544.642 392.035 543.539 391.163C542.435 390.29 541.64 389.084 541.27 387.721C541.084 386.791 540.981 385.846 540.962 384.897C543.086 384.222 545.047 383.112 546.724 381.635C548.336 380.156 550.319 379.15 552.458 378.727C554.799 378.529 559.678 378.444 561.066 380.633C562.973 383.499 559.819 387.425 556.874 389.712Z" fill="#41B3A2"/>
<path d="M537.303 390.362C534.998 390.063 532.816 389.141 530.989 387.694C529.163 386.247 527.759 384.329 526.928 382.144C525.932 379.955 525.904 377.569 527.979 376.679C528.798 376.427 529.661 376.358 530.509 376.477C531.357 376.597 532.168 376.902 532.886 377.371C534.348 378.314 535.568 379.591 536.447 381.099C537.397 382.669 537.982 384.436 538.158 386.267C538.182 387.679 537.89 389.079 537.303 390.362Z" fill="#41B3A2"/>
<path d="M544.607 371.822C543.668 376.591 542.196 381.238 540.219 385.674C538.213 390.059 535.582 394.126 532.41 397.746" stroke="#41B3A2" stroke-miterlimit="10"/>
<path d="M535.83 418.362C532.716 418.789 529.544 418.329 526.675 417.034C523.871 415.721 522.063 413.504 522.315 410.553C522.414 409.584 522.645 408.634 523.002 407.729C527.208 408.266 531.933 405.583 535.62 407.659C536.967 408.415 538.259 409.264 539.49 410.2C540.115 410.618 540.651 411.159 541.065 411.789C541.479 412.42 541.764 413.128 541.901 413.871C542.462 416.893 538.999 417.952 535.83 418.362Z" fill="#41B3A2"/>
<path d="M517.674 412.008C513.468 409.974 510.202 407.15 510.202 400.966C510.202 398.353 511.73 395.247 514.506 394.838C515.402 394.756 516.301 394.946 517.088 395.384C517.875 395.822 518.514 396.487 518.922 397.294C519.745 398.909 520.222 400.679 520.324 402.491C520.491 404.42 520.325 406.365 519.834 408.237C519.351 409.618 518.619 410.896 517.674 412.008Z" fill="#41B3A2"/>
<path d="M532.41 397.746C531.666 398.678 530.755 399.483 529.942 400.359L527.264 402.985L521.979 408.308C520.226 410.059 518.488 411.81 516.693 413.49C515.796 414.323 514.899 415.156 513.973 415.961C513.048 416.766 512.109 417.543 511.169 418.418" stroke="#41B3A2" stroke-miterlimit="10"/>
<path d="M515.936 438.045C514.541 438.213 513.133 438.256 511.73 438.172C510.208 438.079 508.7 437.828 507.23 437.423C504.426 436.633 501.902 434.995 501.622 432.044C501.557 431.073 501.633 430.098 501.846 429.149C506.192 429.008 510.468 426.142 514.268 428.217C516.329 429.276 520.128 432.143 520.717 434.246C520.926 434.787 520.926 435.386 520.717 435.927C520.513 436.399 520.151 436.784 519.693 437.014C518.503 437.556 517.235 437.903 515.936 438.045Z" fill="#41B3A2"/>
<path d="M497.388 434.599C495.149 434.389 492.993 433.649 491.093 432.439C489.312 431.14 488.008 429.064 487.672 425.379C487.363 422.315 489.074 418.079 492.102 417.048C492.981 416.752 493.935 416.771 494.802 417.103C495.668 417.435 496.394 418.06 496.855 418.87C497.77 420.507 498.352 422.312 498.565 424.179C498.863 426.174 498.919 428.199 498.734 430.208C498.483 431.726 498.031 433.203 497.388 434.599Z" fill="#41B3A2"/>
<path d="M511.155 418.418C503.494 425.302 497.463 433.827 493.504 443.368" stroke="#41B3A2" stroke-miterlimit="10"/>
<path d="M506.122 459.027C503.652 460.591 500.905 461.66 498.033 462.176C495.06 462.642 492.214 462.261 490.686 459.705C490.198 458.861 489.857 457.939 489.677 456.98C493.504 454.989 496.224 450.583 500.514 450.795C502.827 450.795 507.524 451.769 508.926 453.45C510.791 455.624 508.393 457.488 506.122 459.027Z" fill="#41B3A2"/>
<path d="M487.896 463.842C483.382 465.127 478.965 465.988 475.18 459.677C474.385 458.172 473.966 456.495 473.96 454.791C473.954 453.111 474.563 451.487 475.671 450.23C476.353 449.589 477.233 449.202 478.165 449.135C479.096 449.068 480.022 449.325 480.788 449.863C482.289 450.957 483.565 452.333 484.545 453.916C485.661 455.599 486.574 457.409 487.265 459.309C487.503 460.041 487.649 460.8 487.7 461.569C487.896 462.331 487.896 463.136 487.896 463.842Z" fill="#41B3A2"/>
<path d="M493.504 443.368C489.483 452.867 487.638 463.156 488.106 473.472" stroke="#41B3A2" stroke-miterlimit="10"/>
<path d="M607.066 398.184C605.807 399.442 604.323 400.448 602.692 401.149C601.187 401.827 599.559 402.183 597.911 402.194C596.507 402.304 595.105 401.95 593.919 401.186C592.732 400.421 591.825 399.288 591.336 397.958C591.029 397.043 590.832 396.096 590.747 395.134C592.789 394.207 594.611 392.849 596.088 391.152C597.504 389.434 599.32 388.095 601.374 387.255C603.659 386.662 608.454 385.589 610.178 387.721C610.695 388.494 611.001 389.39 611.065 390.319C611.129 391.249 610.949 392.179 610.543 393.016C609.758 394.966 608.573 396.727 607.066 398.184Z" fill="#41B3A2"/>
<path d="M587.564 401.093C585.231 401.054 582.954 400.365 580.986 399.101C579.018 397.837 577.437 396.049 576.418 393.934C575.311 391.872 574.848 389.585 576.839 388.639C578.437 388.041 580.206 388.102 581.76 388.808C583.331 389.513 584.701 390.606 585.742 391.985C586.891 393.417 587.68 395.108 588.041 396.913C588.186 398.325 588.023 399.751 587.564 401.093Z" fill="#41B3A2"/>
<path d="M592.373 381.89C592.197 391.651 589.105 401.133 583.498 409.099" stroke="#41B3A2" stroke-miterlimit="10"/>
<path d="M587.915 430.321C584.665 431.117 581.241 430.737 578.241 429.248C575.535 427.836 573.867 425.45 574.259 422.499C574.432 421.534 574.695 420.589 575.044 419.675C579.25 420.395 583.989 417.218 588.069 418.46C590.298 419.209 594.827 421.058 595.233 423.614C595.85 427.144 591.448 429.474 587.915 430.321Z" fill="#41B3A2"/>
<path d="M569.563 423.6C567.582 422.54 565.878 421.026 564.585 419.18C563.303 417.06 562.682 414.6 562.805 412.12C562.789 410.915 563.089 409.727 563.674 408.675C563.92 408.205 564.287 407.809 564.735 407.529C565.184 407.248 565.698 407.093 566.226 407.08C567.086 407.14 567.92 407.4 568.664 407.839C569.408 408.277 570.042 408.882 570.516 409.607C571.485 411.067 572.1 412.735 572.31 414.478C572.567 416.333 572.424 418.22 571.89 420.014C571.358 421.352 570.567 422.572 569.563 423.6Z" fill="#41B3A2"/>
<path d="M583.498 409.099C580.758 413.15 577.584 416.885 574.035 420.239C570.442 423.589 566.578 426.631 562.482 429.333" stroke="#41B3A2" stroke-miterlimit="10"/>
<path d="M559.777 450.555C556.565 450.161 553.562 448.741 551.21 446.503C549.037 444.342 548.014 441.631 549.234 438.934C549.649 438.062 550.172 437.246 550.79 436.506C554.659 438.44 560.001 437.042 563.338 439.753C565.146 441.25 568.581 444.667 568.175 447.152C567.614 450.428 563.169 450.979 559.777 450.555Z" fill="#41B3A2"/>
<path d="M544.369 438.751C541.004 435.433 538.915 431.691 540.962 425.831C541.845 423.374 543.976 421.073 546.43 421.68C547.259 421.957 548.004 422.444 548.594 423.094C549.183 423.744 549.596 424.536 549.794 425.393C550.195 427.13 550.195 428.937 549.794 430.674C549.416 432.544 548.683 434.323 547.635 435.913C546.725 437.049 545.618 438.011 544.369 438.751Z" fill="#41B3A2"/>
<path d="M562.482 429.333C554.153 434.684 545.302 439.164 536.069 442.704" stroke="#41B3A2" stroke-miterlimit="10"/>
<path d="M530.615 462.967C527.687 462.009 525.068 460.278 523.03 457.954C521.067 455.666 520.058 452.941 521.46 450.301C521.943 449.461 522.538 448.692 523.226 448.013C526.928 450.259 532.255 449.764 535.017 453.068C536.503 454.876 539.153 458.914 538.438 461.23C537.485 464.308 533.573 463.884 530.615 462.967Z" fill="#41B3A2"/>
<path d="M516.539 449.948C513.23 446.601 510.679 442.973 513.735 436.83C515.053 434.246 518.095 431.888 520.745 432.693C521.587 432.998 522.321 433.547 522.855 434.27C523.389 434.994 523.698 435.86 523.745 436.76C523.84 438.573 523.539 440.386 522.862 442.069C522.184 443.918 521.213 445.644 519.988 447.18C518.98 448.269 517.818 449.201 516.539 449.948Z" fill="#41B3A2"/>
<path d="M536.069 442.704C526.872 446.39 517.198 449.468 508.211 454.48" stroke="#41B3A2" stroke-miterlimit="10"/>
<path d="M508.926 474.503C506.12 474.135 503.387 473.335 500.822 472.13C498.187 470.86 495.887 468.968 496.056 465.974C496.147 464.998 496.398 464.044 496.799 463.15C498.978 463.313 501.167 463.313 503.346 463.15C505.406 462.962 507.462 463.545 509.122 464.788C510.917 466.271 514.015 469.885 514.141 472.074C514.38 474.884 511.548 474.743 508.926 474.503Z" fill="#41B3A2"/>
<path d="M491.485 467.993C489.27 467.583 487.181 466.654 485.386 465.282C483.774 463.87 482.709 461.399 483.157 457.431C483.494 454.071 486.298 449.821 489.621 449.312C490.552 449.149 491.511 449.333 492.319 449.829C493.126 450.325 493.727 451.1 494.009 452.009C494.544 453.84 494.72 455.759 494.528 457.657C494.399 459.725 494.061 461.773 493.518 463.771C492.98 465.243 492.299 466.657 491.485 467.993Z" fill="#41B3A2"/>
<path d="M508.211 454.48C503.658 456.961 499.469 460.063 495.761 463.701C491.944 467.384 488.977 471.867 487.069 476.832" stroke="#41B3A2" stroke-miterlimit="10"/>
<path d="M455.846 624.556C455.384 624.669 439.233 624.669 438.756 624.556C426.909 621.93 384.835 608.007 422.759 562.922H471.31C509.206 607.993 467.707 621.93 455.846 624.556Z" fill="white" stroke="#263238" stroke-miterlimit="10"/>
<path d="M471.296 563.219C471.296 563.953 470.203 564.631 468.282 565.238C464.076 563.925 456.113 563.049 446.888 563.049C437.662 563.049 429.657 563.925 425.507 565.238C423.586 564.645 422.493 563.953 422.493 563.219C422.493 560.903 433.414 558.983 446.888 558.983C460.361 558.983 471.296 560.903 471.296 563.219Z" fill="white" stroke="#263238" stroke-miterlimit="10"/>
<path d="M468.268 565.238C464.062 566.537 456.099 567.412 446.873 567.412C437.648 567.412 429.643 566.537 425.493 565.238C429.699 563.925 437.662 563.049 446.873 563.049C456.085 563.049 464.132 563.925 468.268 565.238Z" fill="#263238" stroke="#263238" stroke-miterlimit="10"/>
<path d="M465.59 575.983C467.287 575.63 468.969 575.235 470.609 574.797L465.59 575.983Z" fill="white"/>
<path d="M465.59 575.983C467.287 575.63 468.969 575.235 470.609 574.797" stroke="#263238" stroke-miterlimit="10"/>
<path d="M423.712 574.077C435.293 578.313 448.878 578.722 461.468 576.731L423.712 574.077Z" fill="white"/>
<path d="M423.712 574.077C435.293 578.313 448.878 578.722 461.468 576.731" stroke="#263238" stroke-miterlimit="10"/>
<path d="M482.288 493.932C476.75 494.398 469.081 490.896 469.32 485.46C469.389 484.593 469.568 483.739 469.852 482.918C473.862 483.864 478.082 481.633 481.867 483.483C483.942 484.528 488.05 487.013 488.471 489.357C488.976 492.477 485.302 493.678 482.288 493.932Z" fill="#41B3A2"/>
<path d="M465.043 486.392C460.978 484.189 457.697 481.365 457.627 475.35C457.627 472.822 458.861 470.14 461.23 470.168C462.094 470.251 462.927 470.54 463.658 471.011C464.39 471.483 464.999 472.123 465.436 472.879C466.327 474.362 466.901 476.016 467.118 477.736C467.387 479.497 467.325 481.293 466.936 483.031C466.525 484.263 465.882 485.404 465.043 486.392Z" fill="#41B3A2"/>
<path d="M477.858 474.135C472.25 480.518 465.73 486.152 459.464 492.223" stroke="#41B3A2" stroke-miterlimit="10"/>
<path d="M464.721 511.144C461.881 511.192 459.061 510.654 456.435 509.563C453.813 508.405 451.374 506.654 451.136 503.915C451.074 503.037 451.154 502.154 451.374 501.302C455.44 501.712 459.449 499.509 463.137 501.585C465.156 502.7 468.997 505.496 469.572 507.628C470.315 510.48 467.385 511.059 464.721 511.144Z" fill="#41B3A2"/>
<path d="M447.084 505.778C444.88 505.358 442.789 504.478 440.943 503.194C439.205 501.782 437.999 499.763 437.859 496.134C437.718 493.113 439.177 489.696 441.938 489.159C442.825 489.056 443.722 489.216 444.52 489.62C445.317 490.024 445.979 490.654 446.425 491.433C447.322 492.965 447.917 494.657 448.177 496.417C448.511 498.237 448.587 500.096 448.402 501.938C448.147 503.275 447.703 504.568 447.084 505.778Z" fill="#41B3A2"/>
<path d="M459.463 492.223C456.29 495.265 453.29 498.485 450.477 501.867C449.043 503.599 447.731 505.43 446.551 507.346C445.99 508.334 445.387 509.28 444.883 510.297L443.481 513.347" stroke="#41B3A2" stroke-miterlimit="10"/>
<path d="M456.393 527.777C453.878 529.093 451.138 529.918 448.318 530.206C445.415 530.488 442.499 529.952 441.027 527.65C440.578 526.9 440.243 526.086 440.032 525.236C441.849 524.351 443.569 523.277 445.163 522.031C446.728 520.849 448.649 520.246 450.603 520.322C452.874 520.477 457.515 521.593 459.015 523.075C460.024 524.078 459.954 524.911 459.323 525.659C458.493 526.551 457.498 527.27 456.393 527.777Z" fill="#41B3A2"/>
<path d="M438.223 531.081C433.667 531.9 429.264 532.253 425.605 526.761C424.105 524.431 423.769 520.562 426.054 518.698C426.778 518.163 427.649 517.866 428.548 517.848C429.446 517.831 430.328 518.093 431.073 518.599C432.568 519.586 433.863 520.851 434.886 522.327C436.006 523.798 436.925 525.412 437.62 527.128C438.017 528.408 438.22 529.741 438.223 531.081Z" fill="#41B3A2"/>
<path d="M443.425 513.347C441.687 517.461 440.367 521.743 439.485 526.125C438.59 530.467 438.027 534.871 437.803 539.299" stroke="#41B3A2" stroke-miterlimit="10"/>
<path d="M454.57 549.437C452.564 551.521 450.135 553.144 447.448 554.196C444.644 555.241 441.84 555.424 439.737 553.603C439.101 553.004 438.561 552.308 438.139 551.541C441.406 549.042 442.738 544.594 446.859 543.578C449.089 542.999 453.785 542.406 455.664 543.507C458.104 544.919 456.407 547.404 454.57 549.437Z" fill="#41B3A2"/>
<path d="M437.873 557.627C433.737 559.547 429.461 560.875 424.652 556.681C422.591 554.916 421.357 551.499 422.941 549.282C423.529 548.61 424.295 548.12 425.149 547.87C426.003 547.62 426.91 547.62 427.764 547.87C429.462 548.355 431.055 549.155 432.461 550.228C433.945 551.292 435.259 552.578 436.359 554.041C437.068 555.138 437.58 556.352 437.873 557.627Z" fill="#41B3A2"/>
<path d="M437.803 539.299C437.33 548.124 437.867 556.974 439.401 565.675" stroke="#41B3A2" stroke-miterlimit="10"/>
<path d="M490.336 537.746C484.798 539.469 476.498 537.534 475.937 531.914C475.873 531.007 475.929 530.096 476.105 529.203C480.311 529.302 484.195 526.097 488.317 527.128C490.56 527.735 495.102 529.359 495.888 531.646C496.911 534.738 493.364 536.871 490.336 537.746Z" fill="#41B3A2"/>
<path d="M471.773 533.736C467.343 532.324 463.627 530.121 462.646 524.064C462.225 521.508 463.053 518.543 465.45 518.063C466.31 517.977 467.179 518.102 467.98 518.43C468.781 518.757 469.491 519.275 470.049 519.941C471.189 521.278 472.018 522.856 472.474 524.558C473.017 526.305 473.231 528.139 473.105 529.966C472.893 531.294 472.442 532.572 471.773 533.736Z" fill="#41B3A2"/>
<path d="M482.765 518.515C478.236 526.295 472.46 533.425 466.964 540.824" stroke="#41B3A2" stroke-miterlimit="10"/>
<path d="M474.353 559.576C471.479 560.214 468.496 560.161 465.646 559.42C462.772 558.644 460.333 557.076 459.842 554.281C459.702 553.378 459.702 552.458 459.842 551.555C464.048 551.372 467.861 548.35 471.871 549.762C474.058 550.525 478.334 552.586 479.148 554.747C480.199 557.571 477.101 558.884 474.353 559.576Z" fill="#41B3A2"/>
<path d="M455.846 556.61C451.276 555.763 447.084 554.436 445.808 547.828C445.554 546.368 445.694 544.865 446.215 543.479C446.443 542.817 446.812 542.214 447.297 541.712C447.781 541.209 448.369 540.82 449.019 540.57C449.882 540.354 450.79 540.395 451.631 540.688C452.472 540.982 453.211 541.514 453.757 542.222C454.87 543.628 455.677 545.254 456.127 546.995C456.668 548.803 456.933 550.684 456.912 552.572C456.77 553.966 456.411 555.329 455.846 556.61Z" fill="#41B3A2"/>
<path d="M466.964 540.796C461.203 548.14 456.252 556.094 452.201 564.518" stroke="#41B3A2" stroke-miterlimit="10"/>
<path d="M585.938 379.15C585.327 375.841 585.967 372.421 587.732 369.563C587.943 369.294 591.041 365.496 592.093 365.595C594.427 366.772 596.299 368.707 597.406 371.088C598.719 373.577 599.27 376.402 598.991 379.207C598.668 381.833 596.074 386.846 592.569 387.057C589.064 387.269 586.401 381.565 585.938 379.15Z" fill="#41B3A2"/>
<path d="M500.444 126.529H231.26V486.886H500.444V126.529Z" fill="white"/>
<path d="M500.514 487.592H231.33C231.144 487.592 230.966 487.517 230.834 487.385C230.703 487.253 230.629 487.073 230.629 486.886V126.529C230.629 126.342 230.703 126.163 230.834 126.03C230.966 125.898 231.144 125.823 231.33 125.823H500.514C500.7 125.823 500.878 125.898 501.01 126.03C501.141 126.163 501.215 126.342 501.215 126.529V486.886C501.215 487.073 501.141 487.253 501.01 487.385C500.878 487.517 500.7 487.592 500.514 487.592ZM232.031 486.18H499.813V127.235H232.031V486.18Z" fill="#263238"/>
<path d="M465.632 312.207H260.744V320.679H465.632V312.207Z" fill="#263238"/>
<path d="M465.632 205.502H298.724V213.974H465.632V205.502Z" fill="#263238"/>
<path d="M465.632 258.862H260.744V267.334H465.632V258.862Z" fill="#263238"/>
<path d="M412.987 418.898C410.379 421.722 407.716 424.546 404.996 427.37H260.772V418.898H412.987Z" fill="#263238"/>
<path d="M453.239 365.553C451.444 368.377 449.607 371.201 447.701 374.025H260.772V365.553H453.239Z" fill="#263238"/>
<path d="M333.199 477.157C333.199 477.157 321.226 483.017 287.69 486.18H231.961" stroke="#263238" stroke-linecap="round" stroke-linejoin="round"/>
<path d="M494.612 280.988C496.684 277.856 497.938 274.247 498.257 270.497C498.677 265.781 498.986 260.288 499.084 256.942L499.617 238.459V278.164L494.612 280.988Z" fill="#263238"/>
<path d="M498.046 276.526C498.046 278.249 482.372 319.874 453.182 365.482C451.388 368.306 449.551 371.13 447.645 373.954C437.185 389.751 425.582 404.75 412.931 418.827C410.323 421.651 407.66 424.475 404.94 427.299C384.4 448.282 360.735 466.144 334.223 476.381C335.737 475.604 358.828 463.87 363.861 427.299C364.235 424.617 364.501 421.793 364.66 418.827C365.333 406.458 364.015 391.632 359.557 373.954C358.865 371.205 358.094 368.381 357.244 365.482C350.766 343.441 339.635 317.319 321.899 286.41L317.329 276.385L347.191 284.857C480.564 316.048 497.976 276.385 497.976 276.385C497.976 276.385 498.046 276.498 498.046 276.526Z" fill="white" stroke="#263238" stroke-linecap="round" stroke-linejoin="round"/>
<path d="M383.293 402.18C383.386 404.68 383.33 407.184 383.125 409.678L383.293 402.18Z" fill="white"/>
<path d="M383.293 402.18C383.386 404.68 383.33 407.184 383.125 409.678" stroke="#263238" stroke-linecap="round" stroke-linejoin="round"/>
<path d="M351.215 306.037C370.591 331.312 380.363 374.025 382.914 394.287L351.215 306.037Z" fill="white"/>
<path d="M351.215 306.037C370.591 331.312 380.363 374.025 382.914 394.287" stroke="#263238" stroke-linecap="round" stroke-linejoin="round"/>
<path d="M263.744 165.811C261.856 165.871 259.974 165.548 258.212 164.862C256.449 164.175 254.842 163.139 253.485 161.815C252.128 160.491 251.049 158.905 250.312 157.153C249.575 155.4 249.195 153.517 249.195 151.614C249.195 149.71 249.575 147.827 250.312 146.074C251.049 144.322 252.128 142.736 253.485 141.412C254.842 140.088 256.449 139.052 258.212 138.365C259.974 137.679 261.856 137.356 263.744 137.416C264.302 137.416 264.837 137.639 265.231 138.036C265.626 138.433 265.847 138.972 265.847 139.534C265.847 140.096 265.626 140.634 265.231 141.031C264.837 141.429 264.302 141.652 263.744 141.652C261.783 141.635 259.861 142.205 258.222 143.291C256.584 144.376 255.302 145.927 254.54 147.747C253.778 149.567 253.57 151.574 253.942 153.513C254.314 155.452 255.25 157.236 256.631 158.639C258.012 160.042 259.776 161 261.698 161.391C263.62 161.783 265.615 161.59 267.428 160.838C269.242 160.086 270.793 158.809 271.884 157.168C272.975 155.526 273.558 153.596 273.558 151.621C273.558 151.059 273.78 150.52 274.174 150.123C274.569 149.726 275.103 149.503 275.661 149.503C276.219 149.503 276.754 149.726 277.148 150.123C277.543 150.52 277.764 151.059 277.764 151.621C277.761 155.371 276.285 158.967 273.658 161.626C271.032 164.284 267.468 165.789 263.744 165.811Z" fill="#263238"/>
<path d="M263.408 159.951C250.523 159.951 249.822 131.909 249.808 126.289V126.12C249.808 120.472 250.467 92.2318 263.408 92.2318C276.348 92.2318 277.246 122.646 277.316 126.12L266.1 126.332C266.077 119.796 265.133 113.297 263.296 107.03C261.645 113.234 260.871 119.641 260.996 126.063V126.233C260.872 132.688 261.675 139.127 263.38 145.351C263.506 144.942 263.632 144.49 263.772 143.939L264.656 140.875L272.479 143.177C272.867 143.29 273.228 143.48 273.543 143.734C273.858 143.989 274.12 144.304 274.315 144.661C274.509 145.017 274.631 145.409 274.674 145.814C274.718 146.218 274.681 146.627 274.568 147.017C272.296 155.588 268.525 159.951 263.408 159.951Z" fill="#BFBFBF" stroke="#263238" stroke-linecap="round" stroke-linejoin="round"/>
<path d="M275.731 153.739C275.174 153.739 274.639 153.515 274.244 153.118C273.85 152.721 273.628 152.182 273.628 151.621C273.628 148.991 272.597 146.468 270.759 144.601C268.921 142.734 266.425 141.674 263.814 141.652C263.257 141.652 262.722 141.429 262.327 141.032C261.933 140.634 261.711 140.096 261.711 139.534C261.711 138.972 261.933 138.433 262.327 138.036C262.722 137.639 263.257 137.416 263.814 137.416C267.539 137.442 271.103 138.95 273.729 141.61C276.355 144.271 277.831 147.869 277.834 151.621C277.834 152.182 277.613 152.721 277.218 153.118C276.824 153.515 276.289 153.739 275.731 153.739Z" fill="#263238"/>
<path d="M330.199 165.811C326.537 165.695 323.064 164.148 320.515 161.498C317.965 158.848 316.54 155.303 316.54 151.614C316.54 147.924 317.965 144.379 320.515 141.729C323.064 139.079 326.537 137.532 330.199 137.416C330.757 137.416 331.292 137.639 331.686 138.036C332.08 138.433 332.302 138.972 332.302 139.534C332.302 140.096 332.08 140.634 331.686 141.032C331.292 141.429 330.757 141.652 330.199 141.652C328.241 141.652 326.328 142.237 324.7 143.332C323.072 144.427 321.804 145.984 321.054 147.806C320.305 149.627 320.109 151.632 320.491 153.565C320.873 155.499 321.816 157.275 323.2 158.67C324.584 160.064 326.348 161.013 328.268 161.398C330.188 161.782 332.178 161.585 333.987 160.83C335.796 160.076 337.341 158.798 338.429 157.159C339.517 155.52 340.097 153.592 340.097 151.621C340.097 151.059 340.319 150.52 340.713 150.123C341.108 149.726 341.642 149.503 342.2 149.503C342.758 149.503 343.293 149.726 343.687 150.123C344.082 150.52 344.303 151.059 344.303 151.621C344.296 155.384 342.807 158.992 340.163 161.652C337.519 164.312 333.936 165.807 330.199 165.811Z" fill="#263238"/>
<path d="M329.877 159.951C316.992 159.951 316.277 131.909 316.277 126.289V126.12C316.277 120.472 316.922 92.2318 329.877 92.2318C342.831 92.2318 343.714 122.646 343.784 126.12L332.568 126.332C332.547 119.796 331.603 113.297 329.764 107.03C328.12 113.235 327.351 119.642 327.479 126.063V126.233C327.355 132.716 328.158 139.183 329.863 145.436C330.003 145.027 330.129 144.575 330.269 144.024L331.152 140.96L338.976 143.262C339.363 143.375 339.725 143.565 340.04 143.819C340.355 144.074 340.617 144.388 340.811 144.745C341.005 145.102 341.128 145.494 341.171 145.898C341.215 146.303 341.178 146.712 341.065 147.102C338.765 155.588 334.994 159.951 329.877 159.951Z" fill="#BFBFBF" stroke="#263238" stroke-linecap="round" stroke-linejoin="round"/>
<path d="M342.2 153.739C341.642 153.739 341.107 153.515 340.713 153.118C340.319 152.721 340.097 152.182 340.097 151.621C340.093 148.978 339.049 146.444 337.194 144.576C335.339 142.707 332.823 141.656 330.199 141.652C329.641 141.652 329.106 141.429 328.712 141.032C328.318 140.634 328.096 140.096 328.096 139.534C328.096 138.972 328.318 138.433 328.712 138.036C329.106 137.639 329.641 137.416 330.199 137.416C333.939 137.42 337.524 138.917 340.168 141.58C342.812 144.244 344.299 147.854 344.303 151.621C344.303 152.182 344.082 152.721 343.687 153.118C343.293 153.515 342.758 153.739 342.2 153.739Z" fill="#263238"/>
<path d="M396.668 165.811C393.006 165.695 389.533 164.148 386.983 161.498C384.434 158.848 383.008 155.303 383.008 151.614C383.008 147.924 384.434 144.379 386.983 141.729C389.533 139.079 393.006 137.532 396.668 137.416C397.226 137.416 397.761 137.639 398.155 138.036C398.549 138.433 398.771 138.972 398.771 139.534C398.771 140.096 398.549 140.634 398.155 141.032C397.761 141.429 397.226 141.652 396.668 141.652C394.71 141.652 392.796 142.237 391.169 143.332C389.541 144.427 388.272 145.984 387.523 147.806C386.774 149.627 386.578 151.632 386.96 153.565C387.342 155.499 388.285 157.275 389.669 158.67C391.053 160.064 392.817 161.013 394.737 161.398C396.657 161.782 398.647 161.585 400.456 160.83C402.264 160.076 403.81 158.798 404.898 157.159C405.985 155.52 406.566 153.592 406.566 151.621C406.566 151.059 406.788 150.52 407.182 150.123C407.576 149.726 408.111 149.503 408.669 149.503C409.227 149.503 409.762 149.726 410.156 150.123C410.55 150.52 410.772 151.059 410.772 151.621C410.765 155.384 409.276 158.992 406.632 161.652C403.988 164.312 400.405 165.807 396.668 165.811Z" fill="#263238"/>
<path d="M396.331 159.951C383.447 159.951 382.746 131.909 382.732 126.289V126.12C382.732 120.472 383.391 92.2318 396.331 92.2318C409.272 92.2318 410.183 122.646 410.239 126.12L399.023 126.332C399.001 119.796 398.056 113.297 396.219 107.03C394.578 113.254 393.818 119.681 393.962 126.12V126.289C393.838 132.744 394.64 139.184 396.345 145.408C396.472 144.998 396.612 144.546 396.738 143.996L397.635 140.932L405.444 143.233C405.832 143.347 406.194 143.536 406.509 143.791C406.824 144.046 407.086 144.36 407.28 144.717C407.474 145.074 407.596 145.466 407.64 145.87C407.683 146.275 407.647 146.684 407.533 147.074C405.178 155.588 401.463 159.951 396.331 159.951Z" fill="#BFBFBF" stroke="#263238" stroke-linecap="round" stroke-linejoin="round"/>
<path d="M408.669 153.739C408.111 153.739 407.576 153.515 407.182 153.118C406.788 152.721 406.566 152.182 406.566 151.621C406.562 148.978 405.518 146.444 403.663 144.576C401.807 142.707 399.292 141.656 396.668 141.652C396.11 141.652 395.575 141.429 395.181 141.032C394.786 140.634 394.565 140.096 394.565 139.534C394.565 138.972 394.786 138.433 395.181 138.036C395.575 137.639 396.11 137.416 396.668 137.416C400.41 137.416 403.999 138.912 406.646 141.575C409.293 144.239 410.782 147.852 410.786 151.621C410.782 152.184 410.558 152.722 410.161 153.119C409.764 153.516 409.228 153.739 408.669 153.739Z" fill="#263238"/>
<path d="M463.137 165.811C461.248 165.871 459.367 165.548 457.604 164.862C455.842 164.175 454.234 163.139 452.877 161.815C451.52 160.491 450.441 158.905 449.704 157.153C448.968 155.4 448.588 153.517 448.588 151.614C448.588 149.71 448.968 147.827 449.704 146.074C450.441 144.322 451.52 142.736 452.877 141.412C454.234 140.088 455.842 139.052 457.604 138.365C459.367 137.679 461.248 137.356 463.137 137.416C463.694 137.416 464.229 137.639 464.624 138.036C465.018 138.433 465.24 138.972 465.24 139.534C465.24 140.096 465.018 140.634 464.624 141.031C464.229 141.429 463.694 141.652 463.137 141.652C461.178 141.649 459.263 142.231 457.634 143.325C456.004 144.419 454.733 145.975 453.982 147.796C453.231 149.617 453.033 151.622 453.413 153.557C453.793 155.491 454.735 157.269 456.119 158.665C457.502 160.06 459.266 161.011 461.186 161.397C463.107 161.782 465.098 161.586 466.907 160.832C468.717 160.078 470.263 158.8 471.352 157.16C472.44 155.521 473.021 153.593 473.021 151.621C473.021 151.059 473.242 150.52 473.637 150.123C474.031 149.726 474.566 149.503 475.124 149.503C475.682 149.503 476.216 149.726 476.611 150.123C477.005 150.52 477.227 151.059 477.227 151.621C477.223 155.383 475.737 158.99 473.096 161.651C470.454 164.311 466.872 165.807 463.137 165.811Z" fill="#263238"/>
<path d="M462.8 159.951C449.916 159.951 449.215 131.909 449.201 126.289V126.12C449.201 120.472 449.86 92.2318 462.8 92.2318C475.741 92.2318 476.68 122.703 476.68 126.176L465.464 126.388C465.434 119.853 464.49 113.355 462.66 107.086C461.002 113.289 460.228 119.698 460.361 126.12V126.289C460.256 132.756 461.073 139.203 462.786 145.436C462.926 145.027 463.053 144.575 463.193 144.024L464.076 140.96L471.899 143.262C472.287 143.375 472.649 143.565 472.964 143.819C473.279 144.074 473.541 144.388 473.735 144.745C473.929 145.102 474.051 145.494 474.095 145.898C474.138 146.303 474.102 146.712 473.988 147.102C471.689 155.588 467.918 159.951 462.8 159.951Z" fill="#BFBFBF" stroke="#263238" stroke-linecap="round" stroke-linejoin="round"/>
<path d="M475.124 153.739C474.566 153.739 474.031 153.515 473.637 153.118C473.242 152.721 473.021 152.182 473.021 151.621C473.021 148.979 471.98 146.446 470.127 144.577C468.273 142.708 465.759 141.656 463.137 141.652C462.579 141.652 462.044 141.429 461.65 141.032C461.255 140.634 461.034 140.096 461.034 139.534C461.034 138.972 461.255 138.433 461.65 138.036C462.044 137.639 462.579 137.416 463.137 137.416C466.874 137.423 470.455 138.923 473.097 141.585C475.738 144.248 477.223 147.857 477.227 151.621C477.227 152.182 477.005 152.721 476.611 153.118C476.216 153.515 475.682 153.739 475.124 153.739Z" fill="#263238"/>
<path d="M536.296 482.797C542.809 454.274 525.13 425.835 496.809 419.276C468.489 412.718 440.251 430.523 433.739 459.045C427.226 487.568 444.906 516.007 473.226 522.566C501.547 529.124 529.784 511.319 536.296 482.797Z" fill="#41B3A2" stroke="#263238" stroke-miterlimit="10"/>
<path d="M515.726 470.944C515.728 471.594 515.602 472.237 515.356 472.838C515.11 473.438 514.749 473.984 514.293 474.443C513.837 474.902 513.295 475.266 512.699 475.514C512.103 475.762 511.464 475.888 510.819 475.886H489.943V496.925C489.943 498.236 489.426 499.493 488.506 500.42C487.585 501.347 486.337 501.867 485.036 501.867C483.734 501.867 482.486 501.347 481.566 500.42C480.646 499.493 480.129 498.236 480.129 496.925V475.844H459.253C457.952 475.844 456.704 475.323 455.783 474.397C454.863 473.47 454.346 472.213 454.346 470.902C454.346 469.591 454.863 468.334 455.783 467.407C456.704 466.481 457.952 465.96 459.253 465.96H480.129V444.978C480.129 443.667 480.646 442.41 481.566 441.483C482.486 440.556 483.734 440.036 485.036 440.036C486.337 440.036 487.585 440.556 488.506 441.483C489.426 442.41 489.943 443.667 489.943 444.978V465.96H510.819C511.467 465.96 512.108 466.089 512.706 466.34C513.304 466.591 513.847 466.959 514.303 467.422C514.76 467.886 515.12 468.436 515.364 469.04C515.608 469.645 515.731 470.292 515.726 470.944Z" fill="white"/>
<path d="M232.732 297.65C232.732 297.65 237.05 322.642 236.223 325.748C235.396 327.949 233.93 329.848 232.017 331.199L241.691 354.356V336.24C241.691 336.24 244.355 294.303 244.677 275.524C244.814 266.201 244.454 256.878 243.597 247.594L239.013 248.343C239.013 248.343 233.755 287.582 232.732 297.65Z" fill="white" stroke="#263238" stroke-linecap="round" stroke-linejoin="round"/>
<path d="M212.515 601.399L209.823 581.462L191.948 580.05L194.037 601.837C196.668 603.983 199.971 605.118 203.356 605.037C206.741 604.957 209.987 603.668 212.515 601.399Z" fill="white" stroke="#263238" stroke-linecap="round" stroke-linejoin="round"/>
<path d="M192.873 599.309C192.284 604.223 191.709 609.391 193.111 614.093C194.513 618.795 198.621 622.763 202.659 621.605C203.584 621.351 204.468 620.828 205.463 620.659C207.258 620.348 209.024 621.308 210.707 622.141C220.913 627.21 247.523 625.036 249.626 623.92C250.233 623.553 250.726 623.023 251.052 622.389C251.377 621.756 251.522 621.044 251.469 620.333C251.417 619.622 251.17 618.939 250.755 618.361C250.341 617.783 249.775 617.332 249.121 617.058C236.91 611.227 237.695 612.695 217.534 601.187C213.917 599.126 211.772 600.114 209.949 602.006C208.754 603.186 207.3 604.067 205.706 604.58C204.112 605.094 202.42 605.225 200.767 604.963C199.113 604.701 197.544 604.053 196.183 603.071C194.822 602.09 193.708 600.802 192.929 599.309H192.873Z" fill="#263238"/>
<path d="M211.337 556.328C202.21 567.751 190.784 582.379 190.784 582.379L182.54 564.503C182.54 564.503 201.692 541.601 211.52 517.441C211.52 522.172 211.898 527.325 212.024 530.277C212.361 539.2 211.478 547.447 211.337 556.328Z" fill="#263238"/>
<path d="M191.962 604.717C191.919 605.472 191.623 606.189 191.121 606.75C189.55 608.162 187.812 605.607 186.494 603.926C182.444 598.503 178.793 592.788 175.572 586.827L174.549 577.635L171.549 578.892H171.17L170.301 577.353C163.655 565.661 171.591 563.388 180.045 563.769C181.012 563.769 183.031 564.023 186.284 570.307C187.158 571.757 187.94 573.261 188.625 574.811C192.395 584.294 193.548 594.628 191.962 604.717Z" fill="#263238"/>
<path d="M244.158 364.112C243.845 359.04 243.798 353.954 244.018 348.877C244.11 344.918 243.293 340.991 241.629 337.403C239.966 333.814 237.501 330.662 234.428 328.191C234.428 328.191 227.082 338.075 206.094 338.075H205.042C195.695 337.848 186.426 336.298 177.507 333.472C173.727 332.28 170.019 330.866 166.403 329.236C166.403 329.236 166.824 357.476 167.707 383.725C168.464 404.552 173.792 498.097 177.157 527.862C179.961 552.657 188.289 577.141 189.284 587.717C189.761 592.701 200.935 591.148 206.276 589.228C213.286 586.7 213.777 585.203 213.777 585.203C214.24 577.522 212.207 564.023 212.375 556.384C231.498 532.38 261.249 494.398 262.09 488.538C268.581 443.015 244.859 368.829 244.158 364.112ZM225.862 481.308C225.372 484.387 219.02 500.512 211.842 518.119C211.842 510.325 215.263 502.206 216.273 489.625C218.193 465.423 213.314 438.793 214.001 419.35C217.885 436.068 226.759 475.533 225.862 481.252V481.308Z" fill="#263238"/>
<path d="M255.879 495.697C252.819 498.321 249.246 500.269 245.392 501.415" stroke="#BFBFBF" stroke-linecap="round" stroke-linejoin="round"/>
<path d="M260.169 491.136C259.566 491.938 258.921 492.707 258.234 493.438" stroke="#BFBFBF" stroke-linecap="round" stroke-linejoin="round"/>
<path d="M218.333 346.674C220.254 356.968 220.563 370.876 216.371 380.449C215.324 382.088 214.075 383.587 212.655 384.911" stroke="#BFBFBF" stroke-linecap="round" stroke-linejoin="round"/>
<path d="M185.218 345.573C184.083 350.515 182.036 358.662 179.372 362.969C176.816 367.416 172.618 370.664 167.693 372.005" stroke="#BFBFBF" stroke-linecap="round" stroke-linejoin="round"/>
<path d="M211.099 355.993C212.571 372.683 212.501 388.879 214.085 416.935" stroke="#BFBFBF" stroke-linecap="round" stroke-linejoin="round"/>
<path d="M210.202 347.352C210.356 348.679 210.51 349.992 210.65 351.291" stroke="white" stroke-linecap="round" stroke-linejoin="round"/>
<path d="M225.932 476.748C226.888 483.622 228.819 490.322 231.666 496.643" stroke="#BFBFBF" stroke-linecap="round" stroke-linejoin="round"/>
<path d="M227.124 483.215C225.893 493.011 226.43 502.951 228.708 512.556" stroke="#BFBFBF" stroke-linecap="round" stroke-linejoin="round"/>
<path d="M172.011 370.311C174.577 408.802 178.138 438.087 180.984 467.316" stroke="#BFBFBF" stroke-linecap="round" stroke-linejoin="round"/>
<path d="M181.082 477.468C181.082 476.268 181.082 475.039 181.082 473.811" stroke="#BFBFBF" stroke-linecap="round" stroke-linejoin="round"/>
<path d="M197.486 590.385C195.509 584.215 181.853 536.729 181.209 517.032C180.774 503.971 180.255 494.666 180.914 482.043" stroke="#BFBFBF" stroke-linecap="round" stroke-linejoin="round"/>
<path d="M212.978 513.672L212.487 556.187" stroke="#BFBFBF" stroke-linecap="round" stroke-linejoin="round"/>
<path d="M240.751 221.147C237.471 204.203 226.297 202.001 223.759 201.196C206.276 195.647 194.317 194.715 180.493 200.815C164.3 207.988 161.048 208.242 156.057 226.852C153.253 237.032 158.762 271.316 162.043 286.241C164.665 298.116 164.006 328.883 169.053 333.811C178.419 342.947 191.695 341.633 204.538 339.346C215.656 337.355 234.218 334.7 238.438 324.153C239.041 322.642 238.985 316.26 238.775 307.054C238.102 279.195 239.952 263.211 239.672 245.377L243.429 243.626C243.429 243.626 243.752 236.581 240.751 221.147Z" fill="#41B3A2"/>
<mask id="mask0_7_664" style="mask-type:luminance" maskUnits="userSpaceOnUse" x="155" y="196" width="89" height="146">
<path d="M240.751 221.147C237.471 204.203 226.297 202.001 223.759 201.196C206.276 195.647 194.317 194.715 180.493 200.815C164.3 207.988 161.048 208.242 156.057 226.852C153.253 237.032 158.762 271.316 162.043 286.241C164.665 298.116 164.006 328.883 169.053 333.811C178.419 342.947 191.695 341.633 204.538 339.346C215.656 337.355 234.218 334.7 238.438 324.153C239.041 322.642 238.985 316.26 238.775 307.054C238.102 279.195 239.952 263.211 239.672 245.377L243.429 243.626C243.429 243.626 243.752 236.581 240.751 221.147Z" fill="white"/>
</mask>
<g mask="url(#mask0_7_664)">
<path opacity="0.2" d="M159.828 257.379C160.319 263.14 158.426 269.325 160.908 274.507C161.562 275.976 162.635 277.217 163.99 278.072C165.345 278.926 166.922 279.356 168.52 279.308C170.511 279.096 172.39 277.896 174.381 278.122C176.932 278.39 178.685 280.748 180.185 282.852C183.322 287.724 187.341 291.958 192.032 295.334C196.841 298.511 202.953 300.106 208.463 298.44C207.008 300.84 205.367 303.12 203.556 305.26C206.613 304.117 213.37 299.16 219.287 299.132L238.172 299.005C239.391 295.023 236.559 290.66 232.802 288.895C229.045 287.13 224.699 287.356 220.591 287.921C216.483 288.486 212.333 289.333 208.239 288.768C202.756 287.726 197.818 284.759 194.303 280.395C190.833 276.052 187.883 271.312 185.513 266.275C184.489 268.224 181.657 268.464 179.75 267.405C177.949 266.157 176.446 264.522 175.348 262.618C171.605 257.295 164.441 248.427 157.837 246.987C156.744 249.825 159.562 254.245 159.828 257.379Z" fill="black"/>
<path opacity="0.2" d="M217.885 285.662C225.203 282.838 230.11 275.524 232.227 267.899C233.489 263.296 236.335 250.658 233.167 246.719C230.797 253.341 229.157 260.203 226.591 266.783C225.273 270.144 223.871 273.462 222.385 276.667C221.628 278.235 219.427 285.055 217.885 285.662Z" fill="black"/>
<path opacity="0.2" d="M165.015 307.152C169.712 318.547 180.536 326.638 192.284 330.126C204.033 333.613 217.717 333.486 229.76 331.199C214.24 340.052 193.658 340.913 177.045 334.376C174.058 333.204 171.086 334.559 168.885 332.201C163.838 326.807 164.062 315.653 164.679 308.197L161.875 308.324" fill="black"/>
<path opacity="0.2" d="M195.901 218.013C196.435 218.819 197.226 219.417 198.145 219.707C198.68 219.761 199.22 219.673 199.712 219.453C200.204 219.233 200.63 218.887 200.949 218.451C201.585 217.562 202.138 216.617 202.603 215.627C203.94 213.234 206.011 211.341 208.505 210.233C209.86 213.513 211.908 216.457 214.506 218.86H215.375C216.732 215.571 217.117 211.957 216.483 208.454C216.363 208.903 216.15 209.321 215.857 209.682C215.565 210.042 215.2 210.336 214.786 210.543C214.128 209.112 213.258 207.788 212.207 206.618C211.675 206.038 211.021 205.586 210.294 205.293C209.566 204.999 208.783 204.873 208.001 204.924C207.34 205.03 206.7 205.245 206.108 205.559C202.21 207.465 199.463 211.207 197.402 214.977C194.504 212.834 191.485 210.863 188.359 209.075C190.672 212.097 193.364 215.019 195.901 218.013Z" fill="black"/>
</g>
<path d="M240.751 221.147C237.471 204.203 226.297 202.001 223.759 201.196C206.276 195.647 194.317 194.715 180.493 200.815C164.3 207.988 161.048 208.242 156.057 226.852C153.253 237.032 158.762 271.316 162.043 286.241C164.665 298.116 164.006 328.883 169.053 333.811C178.419 342.947 191.695 341.633 204.538 339.346C215.656 337.355 234.218 334.7 238.438 324.153C239.041 322.642 238.985 316.26 238.775 307.054C238.102 279.195 239.952 263.211 239.672 245.377L243.429 243.626C243.429 243.626 243.752 236.581 240.751 221.147Z" stroke="#263238" stroke-miterlimit="10"/>
<path d="M212.038 197.44C214.143 197.437 216.196 196.784 217.921 195.57C219.645 194.356 220.959 192.638 221.684 190.648C223.703 185 224.642 167.011 224.642 163.736C224.642 160.46 222.077 153.852 221.558 150.096C221.039 146.34 218.754 138.517 218.754 138.517L211.954 131.909L202.603 135.891L189.368 137.656C189.368 137.656 186.901 159.274 183.522 155.8C180.143 152.327 169.936 156.788 170.567 164.978C171.198 173.168 181.601 173.055 181.601 173.055C181.601 173.055 184.181 175.61 185.723 184.125C186.688 189.42 186.721 194.844 185.821 200.151C187.488 202.216 189.651 203.818 192.104 204.806C194.557 205.794 197.22 206.136 199.841 205.799C208.8 204.655 209.655 198.527 209.655 198.527C209.655 198.527 209.767 197.496 212.038 197.44Z" fill="white"/>
<path d="M181.755 161.095C179.764 158.271 172.614 153.696 170.876 163.27C169.137 172.843 178.629 172.236 183.606 173.422C187.335 179.677 194.822 190.182 201.131 193.472C205.042 195.52 209.935 197.892 214.548 197.355C219.161 196.819 220.997 194.037 221.895 189.646C223.137 183.75 223.948 177.771 224.32 171.756C224.544 167.929 225.203 162.804 223.661 159.175C221.446 153.936 221.923 147.879 220.226 142.527C218.53 137.176 213.931 133.25 209.669 129.819" stroke="#263238" stroke-linecap="round" stroke-linejoin="round"/>
<path d="M198.846 157.593C201.762 155.772 204.299 154.981 206.753 157.593C207.44 157.593 209.024 154.769 209.024 154.769C208.3 153.881 207.325 153.236 206.228 152.921C205.13 152.605 203.964 152.634 202.883 153.004C198.607 154.049 198.846 157.593 198.846 157.593Z" fill="#263238"/>
<path d="M205.337 178.844C207.342 181.753 209.473 182.642 213.23 182.317" stroke="#263238" stroke-linecap="round" stroke-linejoin="round"/>
<path d="M203.893 162.055C204.538 162.055 205.169 163.03 205.295 164.371C205.421 165.712 204.972 166.842 204.313 166.884C203.655 166.927 203.038 165.896 202.911 164.569C202.785 163.241 203.29 162.112 203.893 162.055Z" fill="#263238"/>
<path d="M218.109 160.163C218.782 160.163 219.413 161.123 219.511 162.465C219.609 163.806 219.203 164.95 218.53 165.006C217.857 165.063 217.24 164.018 217.128 162.691C217.016 161.363 217.45 160.234 218.109 160.163Z" fill="#263238"/>
<path d="M216.539 156.04C216.539 156.04 219.763 154.459 221.053 155.602C221.053 155.602 221.979 152.369 219.539 151.621C218.93 151.366 218.249 151.347 217.628 151.569C217.006 151.791 216.488 152.237 216.174 152.821L216.273 156.308L216.539 156.04Z" fill="#263238"/>
<path d="M209.851 197.158C209.935 197.158 209.248 202.537 207.047 204.048C205.575 205.351 203.679 206.064 201.72 206.053C197.191 206.448 188.233 204.062 185.863 200.151C186.733 196.291 186.871 192.3 186.27 188.389C185.863 183.321 184.952 178.307 183.55 173.422C183.55 173.422 195.285 195.407 209.851 197.158Z" stroke="#263238" stroke-linecap="round" stroke-linejoin="round"/>
<path d="M186.943 196.099C183.858 196.833 181.335 197.002 180.662 199.134C180.213 200.546 181.237 201.789 182.33 202.961C186.877 207.709 192.115 211.733 197.864 214.892C200.387 211.067 203.485 207.661 207.047 204.796C200.386 203.499 194.062 200.831 188.471 196.96L186.943 196.099Z" fill="white" stroke="#263238" stroke-linecap="round" stroke-linejoin="round"/>
<path d="M209.935 197.581C210.838 197.602 211.724 197.837 212.52 198.266C213.317 198.695 214.002 199.307 214.52 200.052C215.838 201.563 216.903 207.762 215.557 211.701C212.557 208.199 210.707 202.904 206.374 204.274C209.767 203.201 209.935 197.581 209.935 197.581Z" fill="white" stroke="#263238" stroke-linecap="round" stroke-linejoin="round"/>
<path d="M186.466 177.912C186.466 177.912 192.158 199.007 198.621 201.012C200.521 201.551 202.535 201.527 204.422 200.944C206.31 200.361 207.99 199.242 209.262 197.722C197.331 193.797 186.466 177.912 186.466 177.912Z" fill="#263238"/>
<path d="M191.864 153.626C187.924 156.04 185.204 163.27 188.036 167.054C190.868 170.838 187.952 173.083 186.634 174.368C185.63 172.35 184.754 170.271 184.012 168.141C183.157 165.628 183.241 163.425 181.839 161.18C181.068 159.937 177.507 157.946 176.091 157.565C174.002 157 171.885 159.274 171.212 161.349C170.731 163.487 170.799 165.712 171.409 167.816C168.605 164.78 168.38 163.933 168.1 159.838C168.131 157.603 168.028 155.368 167.791 153.146C167.343 150.83 166.179 148.684 165.871 146.354C165.338 142.245 167.511 138.334 169.614 134.775C171.451 131.242 173.853 128.036 176.722 125.287C179.389 123.177 182.395 121.543 185.611 120.458C192.789 117.733 200.556 116.01 208.141 117.168C215.726 118.326 223.114 122.816 226.367 129.735C227.611 132.058 227.984 134.754 227.418 137.331C227.052 138.629 226.35 139.806 225.384 140.741C224.418 141.675 223.222 142.335 221.919 142.651C220.617 142.967 219.254 142.928 217.971 142.539C216.688 142.151 215.531 141.425 214.618 140.438C216.18 140.831 217.828 140.672 219.287 139.986C220.006 139.63 220.616 139.085 221.053 138.409C221.489 137.733 221.737 136.951 221.768 136.145C221.738 135.613 221.593 135.095 221.345 134.625C221.096 134.155 220.749 133.745 220.328 133.423C219.907 133.101 219.422 132.874 218.906 132.759C218.39 132.644 217.855 132.643 217.338 132.756C216.843 132.936 216.395 133.228 216.03 133.61C215.665 133.992 215.393 134.454 215.234 134.96C215.075 135.465 215.034 136.001 215.115 136.525C215.195 137.049 215.395 137.547 215.698 137.981L213.272 136.752L213.006 138.376L210.202 136.385L209.992 137.797C208.702 137.275 199.645 137.797 196.546 138.136C194.993 138.288 193.458 138.591 191.962 139.04C190.279 139.548 189.803 139.717 189.494 141.497C188.625 146.622 187.546 150.759 191.864 153.626Z" fill="#263238"/>
<path d="M192.943 128.351C192.68 128.593 192.476 128.892 192.346 129.226C192.217 129.56 192.165 129.92 192.194 130.277C192.224 130.634 192.335 130.98 192.518 131.287C192.702 131.595 192.952 131.856 193.252 132.05" stroke="#BFBFBF" stroke-linecap="round" stroke-linejoin="round"/>
<path d="M195.789 128.972C195.612 129.234 195.517 129.544 195.517 129.862C195.517 130.179 195.612 130.489 195.789 130.751" stroke="#BFBFBF" stroke-linecap="round" stroke-linejoin="round"/>
<path d="M198.719 128.958C198.565 129.537 198.397 130.13 198.229 130.709" stroke="#BFBFBF" stroke-linecap="round" stroke-linejoin="round"/>
<path d="M206.094 127.518C205.532 127.949 205.111 128.54 204.887 129.215C204.662 129.889 204.643 130.616 204.832 131.302" stroke="#BFBFBF" stroke-linecap="round" stroke-linejoin="round"/>
<path d="M208.029 131.584C207.937 130.678 208.181 129.77 208.714 129.035C209.247 128.3 210.032 127.79 210.917 127.602" stroke="#BFBFBF" stroke-linecap="round" stroke-linejoin="round"/>
<path d="M210.707 131.881C211.317 130.601 212.271 129.52 213.46 128.759C214.65 127.998 216.027 127.587 217.436 127.574" stroke="#BFBFBF" stroke-linecap="round" stroke-linejoin="round"/>
<path d="M213.02 133.123C213.502 132.289 214.17 131.579 214.971 131.049C215.772 130.519 216.685 130.184 217.636 130.07C218.588 129.957 219.553 130.068 220.455 130.394C221.357 130.72 222.172 131.254 222.834 131.951" stroke="#BFBFBF" stroke-linecap="round" stroke-linejoin="round"/>
<path d="M185.26 131.048C185.072 131.33 184.949 131.65 184.898 131.985C184.848 132.321 184.872 132.664 184.968 132.989C185.065 133.314 185.231 133.614 185.456 133.867C185.681 134.119 185.959 134.319 186.27 134.451" stroke="#BFBFBF" stroke-linecap="round" stroke-linejoin="round"/>
<path d="M189.452 126.812C188.635 128.178 188.351 129.8 188.654 131.366C188.957 132.931 189.826 134.327 191.093 135.284" stroke="#BFBFBF" stroke-linecap="round" stroke-linejoin="round"/>
<path d="M181.671 133.434C181.596 133.666 181.574 133.912 181.608 134.154C181.641 134.396 181.729 134.627 181.864 134.83C181.999 135.032 182.178 135.201 182.387 135.324C182.597 135.447 182.831 135.52 183.073 135.538" stroke="#BFBFBF" stroke-linecap="round" stroke-linejoin="round"/>
<path d="M178.475 135.439C178.394 135.75 178.433 136.08 178.584 136.363C178.734 136.645 178.986 136.86 179.288 136.964" stroke="#BFBFBF" stroke-linecap="round" stroke-linejoin="round"/>
<path d="M175.643 137.444C175.61 137.532 175.597 137.626 175.605 137.719C175.612 137.813 175.639 137.903 175.684 137.985C175.73 138.067 175.792 138.138 175.867 138.193C175.942 138.248 176.028 138.287 176.119 138.305" stroke="#BFBFBF" stroke-linecap="round" stroke-linejoin="round"/>
<path d="M233.966 242.285C234.653 266.557 231.765 291.945 203.122 305.373" stroke="#263238" stroke-linecap="round" stroke-linejoin="round"/>
<path d="M191.387 316.443C203.867 319.875 216.895 320.806 229.732 319.183" stroke="#263238" stroke-linecap="round" stroke-linejoin="round"/>
<path d="M181.503 313.153C183.143 313.789 184.798 314.396 186.466 314.947" stroke="#263238" stroke-linecap="round" stroke-linejoin="round"/>
<path d="M332.695 280.706C332.747 280.109 332.657 279.509 332.431 278.955C332.205 278.401 331.851 277.91 331.397 277.523C330.944 277.135 330.405 276.863 329.826 276.729C329.247 276.595 328.644 276.603 328.068 276.752C328.068 276.893 327.76 276.936 327.788 277.063C328.871 277.916 329.72 279.034 330.255 280.31C331.068 280.367 331.881 280.677 332.695 280.706Z" stroke="#263238" stroke-linecap="round" stroke-linejoin="round"/>
<path d="M331.208 283.205C330.297 280.581 328.997 278.11 327.353 275.877C322.208 271.895 324.451 270.61 314.483 268.817C314.483 268.93 295.219 273.829 284.732 278.701C284.732 278.701 215.768 270.483 215.768 269.819L205.113 255.699L175.124 260.401C175.124 260.401 191.121 286.565 203.164 293.272C203.164 293.272 260.646 291.86 279.292 291.762C289.429 291.762 295.121 296.958 305.089 285.732C305.089 285.732 310.529 291.14 313.768 289.587C315.899 288.994 308.973 283.12 306.603 281.2C307.36 281.638 318.016 289.051 323.946 289.262C324.228 289.277 324.507 289.197 324.739 289.035C324.972 288.872 325.144 288.637 325.229 288.366C325.314 288.094 325.307 287.802 325.209 287.535C325.112 287.268 324.929 287.041 324.689 286.89C324.689 286.89 309.94 278.559 310.669 277.5C310.669 277.5 318.843 280.466 320.147 282.287C325.6 289.827 329.288 287.187 329.806 286.735C330.872 285.803 329.386 284.956 329.386 284.08C329.274 284.094 331.461 284.73 331.208 283.205Z" fill="white" stroke="#263238" stroke-linecap="round" stroke-linejoin="round"/>
<path d="M315.716 273.829C318.633 274.987 322.726 276.823 324.675 279.294C328.461 284.094 329.274 284.094 329.274 284.094" stroke="#263238" stroke-linecap="round" stroke-linejoin="round"/>
<path d="M162.968 210.67C162.968 210.67 153.687 219.142 156.309 241.537C157.711 252.946 171.296 271.895 171.296 271.895L208.267 260.076C208.267 260.076 199.533 240.195 190.279 226.767" stroke="#263238" stroke-miterlimit="10"/>
<path d="M196.28 226.358C198.679 231.931 200.052 237.897 200.332 243.965" stroke="#263238" stroke-linecap="round" stroke-linejoin="round"/>
<path d="M217.114 155.207C217.114 155.292 213.525 160.855 214.646 162.408C219.105 168.31 219.721 175.286 217.773 175.61C215.193 176.02 213.272 173.93 212.165 173.168" stroke="#263238" stroke-linecap="round" stroke-linejoin="round"/>
<path d="M160.305 263.846L167.623 273.081L208.281 260.076L203.29 249.755C203.29 249.755 159.548 263.846 160.305 263.846Z" fill="white" stroke="#263238" stroke-linecap="round" stroke-linejoin="round"/>
<path d="M209.024 204.966C209.024 204.726 214.015 231.893 214.015 231.893L210.693 232.669" stroke="#263238" stroke-linecap="round" stroke-linejoin="round"/>
<path d="M239.742 240.93L245.084 238.939L245.42 247.326L239.644 249.486L239.742 240.93Z" fill="white" stroke="#263238" stroke-linecap="round" stroke-linejoin="round"/>
<path d="M236.798 226.344C238.271 233.906 239.254 241.556 239.742 249.246L236.798 226.344Z" fill="white"/>
<path d="M236.798 226.344C238.271 233.906 239.254 241.556 239.742 249.246" stroke="#263238" stroke-linecap="round" stroke-linejoin="round"/>
<path d="M235.087 217.123C235.396 218.902 235.704 220.597 236.027 222.277L235.087 217.123Z" fill="white"/>
<path d="M235.087 217.123C235.396 218.902 235.704 220.597 236.027 222.277" stroke="#263238" stroke-linecap="round" stroke-linejoin="round"/>
</svg>
