<svg width="28" height="32" viewBox="0 0 28 32" fill="none" xmlns="http://www.w3.org/2000/svg">
<path d="M2 30.0001C2.65691 27.2556 4.16166 24.8122 6.28255 23.0461C8.40343 21.2801 11.0228 20.2893 13.7373 20.2265C16.4518 20.1636 19.1109 21.0321 21.305 22.6982C23.4991 24.3643 25.1067 26.7356 25.88 29.4469" stroke="white" stroke-width="3" stroke-linecap="round" stroke-linejoin="round"/>
<path d="M14.5357 14.823H13.3379C11.8369 14.823 10.3975 14.2019 9.3362 13.0963C8.27489 11.9907 7.67866 10.4911 7.67866 8.92756V8.38794C7.67866 6.69377 8.32469 5.06896 9.47464 3.87101C10.6246 2.67305 12.1843 2.00006 13.8105 2.00006C14.65 1.99917 15.4815 2.17079 16.2572 2.50505C17.033 2.83932 17.7379 3.32968 18.3315 3.94808C18.9251 4.56648 19.3958 5.30076 19.7167 6.10891C20.0375 6.91705 20.2023 7.78318 20.2014 8.65773V8.92756C20.2014 10.4911 19.6052 11.9907 18.5439 13.0963C17.4826 14.2019 16.0431 14.823 14.5422 14.823H14.5357Z" stroke="white" stroke-width="3" stroke-linecap="round" stroke-linejoin="round"/>
</svg>
